<svg aria-hidden="true" style="width:0;height:0;position:absolute;overflow:hidden" xmlns="http://www.w3.org/2000/svg"><defs><symbol id="icon-trash" viewBox="0 0 32 32"><path stroke-linecap="round" stroke-linejoin="round" stroke-width="2.909" d="M12 4h8M4 8h24m-2.667 0-.935 14.026c-.14 2.104-.21 3.157-.665 3.954a4 4 0 0 1-1.731 1.619c-.826.4-1.881.4-3.99.4h-4.025c-2.109 0-3.163 0-3.99-.4a4.005 4.005 0 0 1-1.731-1.619c-.455-.798-.525-1.85-.665-3.954L6.666 8m6.667 6v6.667M18.667 14v6.667"/></symbol><symbol id="icon-user" viewBox="0 0 32 32"><path fill="#f6f6f6" style="fill:var(--color1,#f6f6f6)" d="M32 16c0 8.837-7.163 16-16 16S0 24.837 0 16 7.163 0 16 0s16 7.163 16 16z"/><path fill="#4f2ee8" style="fill:var(--color2,#4f2ee8)" d="M10.523 22.847a5.477 5.477 0 1 1 10.954 0H10.522zM16 16.685c-2.27 0-4.108-1.838-4.108-4.108S13.73 8.469 16 8.469c2.27 0 4.108 1.838 4.108 4.108S18.27 16.685 16 16.685z"/></symbol><symbol id="icon-x-close" viewBox="0 0 32 32"><path d="M8 6.286a1.71 1.71 0 0 0-1.212.502c-.31.31-.502.739-.502 1.212s.192.902.502 1.212L13.576 16l-6.788 6.788c-.31.31-.502.739-.502 1.212s.192.902.502 1.212c.31.31.739.502 1.212.502s.902-.192 1.212-.502L16 18.424l6.788 6.788c.31.31.739.502 1.212.502s.902-.192 1.212-.502c.31-.31.502-.739.502-1.212s-.192-.902-.502-1.212L18.424 16l6.788-6.788c.31-.31.502-.739.502-1.212s-.192-.902-.502-1.212c-.31-.31-.739-.502-1.212-.502s-.902.192-1.212.502L16 13.576 9.212 6.788A1.71 1.71 0 0 0 8 6.286z"/></symbol><symbol id="icon-align-left" viewBox="0 0 32 32"><path d="M4 12.19a1.143 1.143 0 0 0 0 2.286h18.667a1.143 1.143 0 0 0 0-2.286zM4 6.857a1.143 1.143 0 0 0 0 2.286h24a1.143 1.143 0 0 0 0-2.286zM4 17.525a1.143 1.143 0 0 0 0 2.286h24a1.143 1.143 0 0 0 0-2.286zM4 22.857a1.143 1.143 0 0 0 0 2.286h18.667a1.143 1.143 0 0 0 0-2.286z"/></symbol><symbol id="icon-dump" viewBox="0 0 32 32"><path fill="#4f2ee8" style="fill:var(--color2,#4f2ee8)" d="M32 16c0 8.837-7.163 16-16 16S0 24.837 0 16 7.163 0 16 0s16 7.163 16 16z"/><path fill="none" stroke="#fff" style="stroke:var(--color3,#fff)" stroke-linejoin="round" stroke-linecap="round" stroke-width="1.684" d="M13.684 9.053h4.632m-9.263 2.315h13.895m-1.544 0-.541 8.12c-.081 1.218-.122 1.827-.385 2.289a2.322 2.322 0 0 1-1.002.938c-.478.232-1.089.232-2.31.232h-2.33c-1.221 0-1.832 0-2.31-.232a2.31 2.31 0 0 1-1.002-.938c-.263-.462-.304-1.071-.385-2.289l-.541-8.12m3.858 3.474v3.86m3.088-3.86v3.86"/></symbol><symbol id="icon-lock" viewBox="0 0 32 32"><path d="M16 2.857c-4.3 0-7.81 3.511-7.81 7.81v2.895c-.966.043-1.797.152-2.525.522a5.146 5.146 0 0 0-2.248 2.248c-.619 1.215-.56 2.494-.56 4.734v.533c0 2.24-.059 3.519.56 4.734a5.146 5.146 0 0 0 2.248 2.248c1.215.619 2.494.56 4.734.56H21.6c2.24 0 3.519.059 4.734-.56a5.141 5.141 0 0 0 2.248-2.248c.619-1.215.56-2.494.56-4.734v-.533c0-2.24.059-3.519-.56-4.734a5.141 5.141 0 0 0-2.248-2.248c-.727-.371-1.559-.479-2.525-.522v-2.895c0-4.3-3.511-7.81-7.81-7.81zm0 2.286a5.508 5.508 0 0 1 5.525 5.525v2.857H10.476v-2.857a5.508 5.508 0 0 1 5.525-5.525zM10.4 15.81h11.201c2.24 0 3.2.057 3.696.31.538.274.974.712 1.248 1.25.253.496.313 1.456.313 3.696v.533c0 2.24-.06 3.2-.313 3.696-.274.538-.71.974-1.248 1.248-.496.253-1.456.313-3.696.313H10.4c-2.24 0-3.2-.06-3.696-.313a2.851 2.851 0 0 1-1.248-1.248c-.253-.496-.313-1.456-.313-3.696v-.533c0-2.24.06-3.2.313-3.696.274-.538.71-.976 1.248-1.25.496-.253 1.456-.31 3.696-.31z"/></symbol><symbol id="icon-mail" viewBox="0 0 32 32"><path d="M9.067 4.19c-2.24 0-3.519-.059-4.734.56a5.141 5.141 0 0 0-2.248 2.248c-.619 1.215-.56 2.496-.56 4.737v8.533c0 2.24-.059 3.519.56 4.734a5.141 5.141 0 0 0 2.248 2.248c1.215.619 2.494.56 4.734.56h13.866c2.24 0 3.519.059 4.734-.56a5.146 5.146 0 0 0 2.248-2.248c.619-1.215.56-2.494.56-4.734v-8.533c0-.875-.01-1.514-.036-2.15a1.135 1.135 0 0 0-.013-.55l.002.008c-.061-.774-.197-1.424-.513-2.045a5.141 5.141 0 0 0-2.248-2.248c-1.215-.619-2.494-.56-4.734-.56zm0 2.285h13.866c2.24 0 3.2.06 3.696.313.538.274.976.71 1.25 1.248.059.117.034.692.074.871L17.79 16.019c-.881.617-1.231.825-1.422.873-.242.06-.495.06-.737 0-.191-.048-.543-.256-1.424-.873L4.046 8.907c.04-.179.014-.754.074-.871a2.856 2.856 0 0 1 1.25-1.248c.496-.253 1.456-.313 3.696-.313zM3.826 11.54l6.533 4.574-6.411 5.79c-.035-.561-.138-.645-.138-1.636v-8.533c0-.118.015-.084.016-.194zm24.348 0c0 .111.016.077.016.194v8.533c0 .992-.104 1.075-.138 1.636l-6.411-5.79zm-15.895 5.918.618.433c.882.617 1.413 1.025 2.181 1.217a3.81 3.81 0 0 0 1.844 0c.768-.191 1.299-.599 2.181-1.217l.616-.431 7.705 6.96c-.244.29-.453.618-.795.792-.496.253-1.456.313-3.696.313H9.067c-2.24 0-3.2-.06-3.696-.313-.342-.174-.55-.503-.795-.792z"/></symbol><symbol id="icon-Vector-2" viewBox="0 0 60 32"><path fill="#fff" d="M3.167 3h53.667L32.711 30.27c-.719.812-1.694 1.269-2.71 1.269s-1.991-.456-2.71-1.269L3.168 3z" style="fill:var(--color1,#fff)"/></symbol><symbol id="icon-align-left-1" viewBox="0 0 32 32"><path stroke-linecap="round" stroke-linejoin="round" stroke-width="2.286" d="M22.667 13.333H4M28 8H4m24 10.667H4M22.667 24H4"/></symbol><symbol id="icon-Icon-1" viewBox="0 0 32 32"><path stroke-linecap="round" stroke-linejoin="round" stroke-width="5.333" d="M28.444 3.556 3.555 28.445m.001-24.889 24.889 24.889"/></symbol><symbol id="icon-arrow-narrow-right" viewBox="0 0 32 32"><path fill="none" stroke="#eac645" stroke-linecap="round" stroke-linejoin="round" stroke-width="3.2" d="M5.333 16h21.333m.001 0-8-8m8 8-8 8" style="stroke:var(--color2,#eac645)"/></symbol><symbol id="icon-Vector" viewBox="0 0 25 32"><path d="M22.815 8.593h-4.444V7.112a5.93 5.93 0 0 0-5.926-5.926 5.93 5.93 0 0 0-5.926 5.926v1.481H2.075a1.482 1.482 0 0 0-1.482 1.482v16.296a4.444 4.444 0 0 0 4.445 4.445h14.815a4.444 4.444 0 0 0 4.445-4.445V10.075a1.482 1.482 0 0 0-1.482-1.482zM9.481 7.111a2.962 2.962 0 0 1 5.058-2.095c.556.556.868 1.309.868 2.095v1.481H9.481V7.111zM21.333 26.37a1.478 1.478 0 0 1-1.481 1.481H5.037a1.482 1.482 0 0 1-1.482-1.481V11.555h2.963v1.481a1.482 1.482 0 1 0 2.964 0v-1.481h5.926v1.481a1.482 1.482 0 1 0 2.963 0v-1.481h2.963V26.37z"/></symbol><symbol id="icon-Icon---lock" viewBox="0 0 32 32"><path stroke-linecap="round" stroke-linejoin="round" stroke-width="2.667" d="M23.778 14.444V9.777c0-4.296-3.482-7.778-7.778-7.778S8.222 5.481 8.222 9.777v4.667M9.467 30h13.067c2.614 0 3.92 0 4.919-.509a4.662 4.662 0 0 0 2.039-2.039c.509-.998.509-2.305.509-4.919v-.622c0-2.614 0-3.92-.509-4.919a4.662 4.662 0 0 0-2.039-2.039c-.998-.509-2.305-.509-4.919-.509H9.467c-2.614 0-3.92 0-4.919.509a4.662 4.662 0 0 0-2.039 2.039C2 17.99 2 19.297 2 21.911v.622c0 2.614 0 3.92.509 4.919a4.662 4.662 0 0 0 2.039 2.039C5.546 30 6.853 30 9.467 30z"/></symbol></defs></svg>