


<svg aria-hidden="true" style="position: absolute; width: 0; height: 0; overflow: hidden;" version="1.1" xmlns="http://www.w3.org/2000/svg" xmlns:xlink="http://www.w3.org/1999/xlink">
<defs>
<symbol id="icon-trash" viewBox="0 0 32 32">
      <path stroke-linecap="round" stroke-linejoin="round" stroke-width="2.909"
        d="M12 4h8M4 8h24m-2.667 0-.935 14.026c-.14 2.104-.21 3.157-.665 3.954a4 4 0 0 1-1.731 1.619c-.826.4-1.881.4-3.99.4h-4.025c-2.109 0-3.163 0-3.99-.4a4.005 4.005 0 0 1-1.731-1.619c-.455-.798-.525-1.85-.665-3.954L6.666 8m6.667 6v6.667M18.667 14v6.667" />
    </symbol>
<symbol id="icon-user" viewBox="0 0 32 32">
<path fill="#f6f6f6" style="fill: var(--color1, #f6f6f6)" d="M32 16c0 8.837-7.163 16-16 16s-16-7.163-16-16c0-8.837 7.163-16 16-16s16 7.163 16 16z"></path>
<path fill="#4f2ee8" style="fill: var(--color2, #4f2ee8)" d="M10.523 22.847c0-1.453 0.577-2.846 1.604-3.873s2.421-1.604 3.873-1.604 2.846 0.577 3.873 1.604c1.027 1.027 1.604 2.421 1.604 3.873h-10.955zM16 16.685c-2.27 0-4.108-1.838-4.108-4.108s1.838-4.108 4.108-4.108c2.27 0 4.108 1.838 4.108 4.108s-1.838 4.108-4.108 4.108z"></path>
</symbol>
<symbol id="icon-x-close" viewBox="0 0 32 32">
<path d="M8 6.286c-0.473 0-0.902 0.192-1.212 0.502v0c-0.31 0.31-0.502 0.739-0.502 1.212s0.192 0.902 0.502 1.212l6.788 6.788-6.788 6.788c-0.31 0.31-0.502 0.739-0.502 1.212s0.192 0.902 0.502 1.212v0c0.31 0.31 0.739 0.502 1.212 0.502s0.902-0.192 1.212-0.502l6.788-6.788 6.788 6.788c0.31 0.31 0.739 0.502 1.212 0.502s0.902-0.192 1.212-0.502v0c0.31-0.31 0.502-0.739 0.502-1.212s-0.192-0.902-0.502-1.212l-6.788-6.788 6.788-6.788c0.31-0.31 0.502-0.739 0.502-1.212s-0.192-0.902-0.502-1.212v0c-0.31-0.31-0.739-0.502-1.212-0.502s-0.902 0.192-1.212 0.502l-6.788 6.788-6.788-6.788c-0.31-0.31-0.739-0.502-1.212-0.502v0z"></path>
</symbol>
<symbol id="icon-align-left" viewBox="0 0 32 32">
<path d="M4 12.19c-0.631 0-1.143 0.512-1.143 1.143v0c0 0.631 0.512 1.143 1.143 1.143v0h18.667c0.631 0 1.143-0.512 1.143-1.143v0c0-0.631-0.512-1.143-1.143-1.143v0z"></path>
<path d="M4 6.857c-0.631 0-1.143 0.512-1.143 1.143v0c0 0.631 0.512 1.143 1.143 1.143v0h24c0.631 0 1.143-0.512 1.143-1.143v0c0-0.631-0.512-1.143-1.143-1.143v0z"></path>
<path d="M4 17.525c-0.631 0-1.143 0.512-1.143 1.143v0c0 0.631 0.512 1.143 1.143 1.143v0h24c0.631 0 1.143-0.512 1.143-1.143v0c0-0.631-0.512-1.143-1.143-1.143v0z"></path>
<path d="M4 22.857c-0.631 0-1.143 0.512-1.143 1.143v0c0 0.631 0.512 1.143 1.143 1.143v0h18.667c0.631 0 1.143-0.512 1.143-1.143v0c0-0.631-0.512-1.143-1.143-1.143v0z"></path>
</symbol>
<symbol id="icon-dump" viewBox="0 0 32 32">
<path fill="#4f2ee8" style="fill: var(--color2, #4f2ee8)" d="M32 16c0 8.837-7.163 16-16 16s-16-7.163-16-16c0-8.837 7.163-16 16-16s16 7.163 16 16z"></path>
<path fill="none" stroke="#fff" style="stroke: var(--color3, #fff)" stroke-linejoin="round" stroke-linecap="round" stroke-miterlimit="4" stroke-width="1.6842" d="M13.684 9.053h4.632M9.053 11.368h13.895M21.404 11.368l-0.541 8.12c-0.081 1.218-0.122 1.827-0.385 2.289-0.232 0.407-0.581 0.733-1.002 0.938-0.478 0.232-1.089 0.232-2.31 0.232h-2.33c-1.221 0-1.832 0-2.31-0.232-0.421-0.204-0.771-0.531-1.002-0.938-0.263-0.462-0.304-1.071-0.385-2.289l-0.541-8.12M14.456 14.842v3.86M17.544 14.842v3.86"></path>
</symbol>
<symbol id="icon-lock" viewBox="0 0 32 32">
<path d="M16 2.857c-4.3 0-7.81 3.511-7.81 7.81v2.895c-0.966 0.043-1.797 0.152-2.525 0.522-0.967 0.493-1.755 1.28-2.248 2.248-0.619 1.215-0.56 2.494-0.56 4.734v0.533c0 2.24-0.059 3.519 0.56 4.734 0.493 0.967 1.28 1.755 2.248 2.248 1.215 0.619 2.494 0.56 4.734 0.56h11.201c2.24 0 3.519 0.059 4.734-0.56 0.968-0.493 1.755-1.28 2.248-2.248 0.619-1.215 0.56-2.494 0.56-4.734v-0.533c0-2.24 0.059-3.519-0.56-4.734-0.493-0.968-1.28-1.755-2.248-2.248-0.727-0.371-1.559-0.479-2.525-0.522v-2.895c0-4.3-3.511-7.81-7.81-7.81zM16 5.143c3.064 0 5.525 2.46 5.525 5.525v2.857h-11.049v-2.857c0-3.064 2.46-5.525 5.525-5.525zM10.4 15.81h11.201c2.24 0 3.2 0.057 3.696 0.31 0.538 0.274 0.974 0.712 1.248 1.25 0.253 0.496 0.313 1.456 0.313 3.696v0.533c0 2.24-0.060 3.2-0.313 3.696-0.274 0.538-0.71 0.974-1.248 1.248-0.496 0.253-1.456 0.313-3.696 0.313h-11.201c-2.24 0-3.2-0.060-3.696-0.313-0.538-0.274-0.974-0.71-1.248-1.248-0.253-0.496-0.313-1.456-0.313-3.696v-0.533c0-2.24 0.060-3.2 0.313-3.696 0.274-0.538 0.71-0.976 1.248-1.25 0.496-0.253 1.456-0.31 3.696-0.31z"></path>
</symbol>
<symbol id="icon-mail" viewBox="0 0 32 32">
<path d="M9.067 4.19c-2.24 0-3.519-0.059-4.734 0.56-0.968 0.493-1.755 1.28-2.248 2.248-0.619 1.215-0.56 2.496-0.56 4.737v8.533c0 2.24-0.059 3.519 0.56 4.734 0.493 0.968 1.28 1.755 2.248 2.248 1.215 0.619 2.494 0.56 4.734 0.56h13.866c2.24 0 3.519 0.059 4.734-0.56 0.967-0.493 1.755-1.28 2.248-2.248 0.619-1.215 0.56-2.494 0.56-4.734v-8.533c0-0.875-0.010-1.514-0.036-2.15 0.017-0.075 0.027-0.16 0.027-0.248 0-0.105-0.014-0.206-0.040-0.302l0.002 0.008c-0.061-0.774-0.197-1.424-0.513-2.045-0.493-0.968-1.28-1.755-2.248-2.248-1.215-0.619-2.494-0.56-4.734-0.56zM9.067 6.475h13.866c2.24 0 3.2 0.060 3.696 0.313 0.538 0.274 0.976 0.71 1.25 1.248 0.059 0.117 0.034 0.692 0.074 0.871l-10.163 7.112c-0.881 0.617-1.231 0.825-1.422 0.873-0.242 0.060-0.495 0.060-0.737 0-0.191-0.048-0.543-0.256-1.424-0.873l-10.161-7.112c0.040-0.179 0.014-0.754 0.074-0.871 0.274-0.538 0.712-0.974 1.25-1.248 0.496-0.253 1.456-0.313 3.696-0.313zM3.826 11.54l6.533 4.574-6.411 5.79c-0.035-0.561-0.138-0.645-0.138-1.636v-8.533c0-0.118 0.015-0.084 0.016-0.194zM28.174 11.54c0 0.111 0.016 0.077 0.016 0.194v8.533c0 0.992-0.104 1.075-0.138 1.636l-6.411-5.79zM12.279 17.458l0.618 0.433c0.882 0.617 1.413 1.025 2.181 1.217 0.605 0.151 1.239 0.151 1.844 0 0.768-0.191 1.299-0.599 2.181-1.217l0.616-0.431 7.705 6.96c-0.244 0.29-0.453 0.618-0.795 0.792-0.496 0.253-1.456 0.313-3.696 0.313h-13.866c-2.24 0-3.2-0.060-3.696-0.313-0.342-0.174-0.55-0.503-0.795-0.792z"></path>
</symbol>

<symbol id="icon-arrow-narrow-right" viewBox="0 0 32 32"><path fill="#eac645" d="M18.666 6.4A1.596 1.596 0 0 0 17.067 8c0 .442.179.842.468 1.131l5.269 5.269H5.335a1.6 1.6 0 1 0 0 3.2h17.469l-5.269 5.269c-.289.29-.468.689-.468 1.131s.179.842.468 1.131c.29.289.689.468 1.131.468s.842-.179 1.131-.468l8-8c.193-.192.338-.434.413-.704l.003-.011a1.597 1.597 0 0 0-.001-.294v.006c.015-.032.033-.074.049-.117l.004-.011c-.012-.1-.03-.19-.056-.277l.003.011a1.634 1.634 0 0 0-.046-.239l.003.011a1.602 1.602 0 0 0-.372-.638l.001.001-8-8a1.593 1.593 0 0 0-1.131-.469z" style="fill:var(--color1, #eac645)"/>
</symbol>
<symbol id="icon-slider" viewBox="0 0 32 32">
<path fill="#fff" style="fill: var(--color1, #fff)" d="M16 32c-8.837 0-16-7.163-16-16s7.163-16 16-16c8.837 0 16 7.163 16 16s-7.163 16-16 16z"></path>
<path fill="#4f2ee8" style="fill: var(--color2, #4f2ee8)" d="M15.452 17.081c0.072 0.072 0.157 0.13 0.251 0.169s0.195 0.059 0.297 0.059 0.203-0.020 0.297-0.059c0.094-0.039 0.179-0.097 0.251-0.169l3.535-3.543c0.072-0.072 0.157-0.13 0.251-0.169s0.195-0.059 0.297-0.059 0.203 0.020 0.297 0.059c0.094 0.039 0.179 0.097 0.251 0.169 0.144 0.145 0.224 0.34 0.224 0.544s-0.081 0.4-0.224 0.544l-3.543 3.543c-0.434 0.434-1.023 0.677-1.636 0.677s-1.202-0.244-1.636-0.677l-3.543-3.543c-0.143-0.144-0.223-0.338-0.224-0.54-0.001-0.102 0.019-0.202 0.057-0.296s0.095-0.18 0.167-0.252c0.072-0.072 0.157-0.13 0.251-0.169s0.195-0.059 0.297-0.059 0.203 0.020 0.297 0.059c0.094 0.039 0.179 0.097 0.251 0.169l3.536 3.543z"></path>

<symbol id="icon-Vector-2" viewBox="0 0 60 32">
<path fill="#fff" d="M3.167 3h53.667L32.711 30.27c-.719.812-1.694 1.269-2.71 1.269s-1.991-.456-2.71-1.269L3.168 3z" style="fill:var(--color1, #fff)"/>
</symbol>
<symbol id="icon-align-left-1" viewBox="0 0 32 32">
<path stroke-linecap="round" stroke-linejoin="round" stroke-width="2.286" d="M22.667 13.333H4M28 8H4M28 18.667H4M22.667 24H4"/>
</symbol>
<symbol id="icon-Icon-1" viewBox="0 0 32 32">
<path stroke-linecap="round" stroke-linejoin="round" stroke-width="5.333" d="M28.444 3.556 3.555 28.445m.001-24.889 24.889 24.889"/>
</symbol>
<symbol id="icon-arrow-narrow-right" viewBox="0 0 32 32"
><path fill="none" stroke="#eac645" stroke-linecap="round" stroke-linejoin="round" stroke-width="3.2" d="M5.333 16h21.333m.001 0-8-8m8 8-8 8" style="stroke:var(--color2, #eac645)"/>
</symbol>
<symbol id="icon-Vector" viewBox="0 0 25 32"><path d="M22.815 8.593h-4.444V7.112a5.93 5.93 0 0 0-5.926-5.926 5.93 5.93 0 0 0-5.926 5.926v1.481H2.075a1.482 1.482 0 0 0-1.482 1.482v16.296a4.444 4.444 0 0 0 4.445 4.445h14.815a4.444 4.444 0 0 0 4.445-4.445V10.075a1.482 1.482 0 0 0-1.482-1.482zM9.481 7.111a2.962 2.962 0 0 1 5.058-2.095c.556.556.868 1.309.868 2.095v1.481H9.481V7.111zM21.333 26.37a1.478 1.478 0 0 1-1.481 1.481H5.037a1.482 1.482 0 0 1-1.482-1.481V11.555h2.963v1.481a1.482 1.482 0 1 0 2.964 0v-1.481h5.926v1.481a1.482 1.482 0 1 0 2.963 0v-1.481h2.963V26.37z"/>
</symbol>
<symbol id="icon-Icon---lock" viewBox="0 0 32 32">
<path stroke-linecap="round" stroke-linejoin="round" stroke-width="2.667" d="M23.778 14.444V9.777c0-4.296-3.482-7.778-7.778-7.778S8.222 5.481 8.222 9.777v4.667M9.467 30h13.067c2.614 0 3.92 0 4.919-.509a4.662 4.662 0 0 0 2.039-2.039c.509-.998.509-2.305.509-4.919v-.622c0-2.614 0-3.92-.509-4.919a4.662 4.662 0 0 0-2.039-2.039c-.998-.509-2.305-.509-4.919-.509H9.467c-2.614 0-3.92 0-4.919.509a4.662 4.662 0 0 0-2.039 2.039C2 17.99 2 19.297 2 21.911v.622c0 2.614 0 3.92.509 4.919a4.662 4.662 0 0 0 2.039 2.039C5.546 30 6.853 30 9.467 30z"/>

</symbol>
</defs>
</svg>
